<svg width="1358" height="367" viewBox="0 0 1358 367" fill="none" xmlns="http://www.w3.org/2000/svg">
<g clip-path="url(#clip0_402_1517)">
<rect width="1358" height="367" fill="url(#paint0_linear_402_1517)" fill-opacity="0.04"/>
<g opacity="0.6">
<ellipse cx="688" cy="641" rx="605" ry="570" fill="url(#paint1_linear_402_1517)" fill-opacity="0.03"/>
<path d="M1292.5 641C1292.5 955.499 1021.88 1210.5 688 1210.5C354.115 1210.5 83.5 955.499 83.5 641C83.5 326.501 354.115 71.5 688 71.5C1021.88 71.5 1292.5 326.501 1292.5 641Z" stroke="white" stroke-opacity="0.1"/>
</g>
<g opacity="0.6">
<ellipse cx="680.5" cy="707" rx="565.5" ry="570" fill="url(#paint2_linear_402_1517)" fill-opacity="0.03"/>
<path d="M1245.5 707C1245.5 1021.53 992.537 1276.5 680.5 1276.5C368.463 1276.5 115.5 1021.53 115.5 707C115.5 392.47 368.463 137.5 680.5 137.5C992.537 137.5 1245.5 392.47 1245.5 707Z" stroke="white" stroke-opacity="0.1"/>
</g>
<g opacity="0.6">
<ellipse cx="687.5" cy="780" rx="520.5" ry="570" fill="url(#paint3_linear_402_1517)" fill-opacity="0.03"/>
<path d="M1207.5 780C1207.5 1094.57 974.646 1349.5 687.5 1349.5C400.354 1349.5 167.5 1094.57 167.5 780C167.5 465.43 400.354 210.5 687.5 210.5C974.646 210.5 1207.5 465.43 1207.5 780Z" stroke="white" stroke-opacity="0.1"/>
</g>
<g opacity="0.6">
<ellipse cx="687.5" cy="867" rx="520.5" ry="570" fill="url(#paint4_linear_402_1517)" fill-opacity="0.03"/>
<path d="M1207.5 867C1207.5 1181.57 974.646 1436.5 687.5 1436.5C400.354 1436.5 167.5 1181.57 167.5 867C167.5 552.43 400.354 297.5 687.5 297.5C974.646 297.5 1207.5 552.43 1207.5 867Z" stroke="white" stroke-opacity="0.1"/>
</g>
<circle cx="167" cy="350" r="7" fill="#1D3633"/>
<circle cx="167" cy="350" r="6.5" stroke="white" stroke-opacity="0.1"/>
<circle cx="371" cy="229" r="7" fill="#1D3633"/>
<circle cx="371" cy="229" r="6.5" stroke="white" stroke-opacity="0.1"/>
<circle cx="429" cy="285" r="7" fill="#1D3633"/>
<circle cx="429" cy="285" r="6.5" stroke="white" stroke-opacity="0.1"/>
<circle cx="632" cy="71" r="7" fill="#1D3633"/>
<circle cx="632" cy="71" r="6.5" stroke="white" stroke-opacity="0.1"/>
<circle cx="753" cy="71" r="7" fill="#1D3633"/>
<circle cx="753" cy="71" r="6.5" stroke="white" stroke-opacity="0.1"/>
<circle cx="940" cy="202" r="7" fill="#1D3633"/>
<circle cx="940" cy="202" r="6.5" stroke="white" stroke-opacity="0.1"/>
<circle cx="1086" cy="325" r="7" fill="#1D3633"/>
<circle cx="1086" cy="325" r="6.5" stroke="white" stroke-opacity="0.1"/>
<circle cx="835" cy="235" r="7" fill="#1D3633"/>
<circle cx="835" cy="235" r="6.5" stroke="white" stroke-opacity="0.1"/>
<circle cx="596" cy="304" r="7" fill="#1D3633"/>
<circle cx="596" cy="304" r="6.5" stroke="white" stroke-opacity="0.1"/>
<circle cx="835" cy="318" r="7" fill="#1D3633"/>
<circle cx="835" cy="318" r="6.5" stroke="white" stroke-opacity="0.1"/>
</g>
<defs>
<linearGradient id="paint0_linear_402_1517" x1="0" y1="183.5" x2="1358" y2="183.5" gradientUnits="userSpaceOnUse">
<stop stop-color="#0EF7FF"/>
<stop offset="1" stop-color="white"/>
</linearGradient>
<linearGradient id="paint1_linear_402_1517" x1="688" y1="71" x2="688" y2="1211" gradientUnits="userSpaceOnUse">
<stop stop-color="#00FFE1"/>
<stop offset="1" stop-color="#06DCC3"/>
</linearGradient>
<linearGradient id="paint2_linear_402_1517" x1="680.5" y1="137" x2="680.5" y2="1277" gradientUnits="userSpaceOnUse">
<stop stop-color="#00FFE1"/>
<stop offset="1" stop-color="#06DCC3"/>
</linearGradient>
<linearGradient id="paint3_linear_402_1517" x1="687.5" y1="210" x2="687.5" y2="1350" gradientUnits="userSpaceOnUse">
<stop stop-color="#00FFE1"/>
<stop offset="1" stop-color="#06DCC3"/>
</linearGradient>
<linearGradient id="paint4_linear_402_1517" x1="687.5" y1="297" x2="687.5" y2="1437" gradientUnits="userSpaceOnUse">
<stop stop-color="#00FFE1"/>
<stop offset="1" stop-color="#06DCC3"/>
</linearGradient>
<clipPath id="clip0_402_1517">
<rect width="1358" height="367" fill="white"/>
</clipPath>
</defs>
</svg>
